<mxfile host="app.diagrams.net" agent="Mozilla/5.0 (Windows NT 10.0; Win64; x64) AppleWebKit/537.36 (KHTML, like Gecko) Chrome/130.0.0.0 Safari/537.36" version="26.0.8">
  <diagram name="Trang-1" id="rC4VJxHdjQEDBYwldfjm">
    <mxGraphModel dx="1706" dy="913" grid="0" gridSize="10" guides="1" tooltips="1" connect="1" arrows="1" fold="1" page="1" pageScale="1" pageWidth="827" pageHeight="1169" math="0" shadow="0">
      <root>
        <mxCell id="0" />
        <mxCell id="1" parent="0" />
        <mxCell id="vtsXS6kqBglkecylpVnj-2" value="&lt;font style=&quot;font-size: 18px;&quot;&gt;ZUBOARD&lt;/font&gt;" style="rounded=1;whiteSpace=wrap;html=1;fillColor=#e1d5e7;strokeColor=#9673a6;" parent="1" vertex="1">
          <mxGeometry x="261" y="361" width="400" height="320" as="geometry" />
        </mxCell>
        <mxCell id="vtsXS6kqBglkecylpVnj-3" value="SPI driver" style="rounded=1;whiteSpace=wrap;html=1;fillColor=#ffe6cc;strokeColor=#d79b00;" parent="1" vertex="1">
          <mxGeometry x="301" y="481" width="80" height="80" as="geometry" />
        </mxCell>
        <mxCell id="vtsXS6kqBglkecylpVnj-19" style="edgeStyle=orthogonalEdgeStyle;rounded=0;orthogonalLoop=1;jettySize=auto;html=1;exitX=1;exitY=0.5;exitDx=0;exitDy=0;entryX=0;entryY=0.5;entryDx=0;entryDy=0;" parent="1" source="vtsXS6kqBglkecylpVnj-4" target="vtsXS6kqBglkecylpVnj-3" edge="1">
          <mxGeometry relative="1" as="geometry" />
        </mxCell>
        <mxCell id="vtsXS6kqBglkecylpVnj-4" value="Module RFID&lt;div&gt;RC522&lt;/div&gt;" style="rounded=1;whiteSpace=wrap;html=1;fillColor=#ffe6cc;strokeColor=#d79b00;" parent="1" vertex="1">
          <mxGeometry x="101" y="461" width="120" height="120" as="geometry" />
        </mxCell>
        <mxCell id="vtsXS6kqBglkecylpVnj-20" value="" style="edgeStyle=orthogonalEdgeStyle;rounded=0;orthogonalLoop=1;jettySize=auto;html=1;" parent="1" source="vtsXS6kqBglkecylpVnj-5" target="vtsXS6kqBglkecylpVnj-6" edge="1">
          <mxGeometry relative="1" as="geometry" />
        </mxCell>
        <mxCell id="vtsXS6kqBglkecylpVnj-5" value="I2C driver" style="rounded=1;whiteSpace=wrap;html=1;fillColor=#d5e8d4;strokeColor=#82b366;" parent="1" vertex="1">
          <mxGeometry x="301" y="381" width="80" height="80" as="geometry" />
        </mxCell>
        <mxCell id="vtsXS6kqBglkecylpVnj-6" value="LCD i2c&amp;nbsp;&lt;span style=&quot;background-color: transparent; color: light-dark(rgb(0, 0, 0), rgb(255, 255, 255));&quot;&gt;16x2&lt;/span&gt;" style="rounded=1;whiteSpace=wrap;html=1;fillColor=#d5e8d4;strokeColor=#82b366;" parent="1" vertex="1">
          <mxGeometry x="281" y="261" width="120" height="60" as="geometry" />
        </mxCell>
        <mxCell id="vtsXS6kqBglkecylpVnj-7" value="UART driver" style="rounded=1;whiteSpace=wrap;html=1;fillColor=#b0e3e6;strokeColor=#0e8088;" parent="1" vertex="1">
          <mxGeometry x="541" y="481" width="80" height="80" as="geometry" />
        </mxCell>
        <mxCell id="vtsXS6kqBglkecylpVnj-8" value="&lt;font style=&quot;font-size: 18px;&quot;&gt;ESP32&lt;/font&gt;" style="rounded=1;whiteSpace=wrap;html=1;fillColor=#b0e3e6;strokeColor=#0e8088;" parent="1" vertex="1">
          <mxGeometry x="721" y="441" width="200" height="160" as="geometry" />
        </mxCell>
        <mxCell id="vtsXS6kqBglkecylpVnj-10" value="CLOUD" style="ellipse;shape=cloud;whiteSpace=wrap;html=1;fillColor=#dae8fc;gradientColor=#7ea6e0;strokeColor=#6c8ebf;" parent="1" vertex="1">
          <mxGeometry x="1011" y="461" width="180" height="120" as="geometry" />
        </mxCell>
        <mxCell id="vtsXS6kqBglkecylpVnj-21" value="" style="edgeStyle=orthogonalEdgeStyle;rounded=0;orthogonalLoop=1;jettySize=auto;html=1;" parent="1" source="vtsXS6kqBglkecylpVnj-11" target="vtsXS6kqBglkecylpVnj-12" edge="1">
          <mxGeometry relative="1" as="geometry" />
        </mxCell>
        <mxCell id="vtsXS6kqBglkecylpVnj-11" value="MAX7219 driver" style="rounded=1;whiteSpace=wrap;html=1;fillColor=#dae8fc;strokeColor=#6c8ebf;" parent="1" vertex="1">
          <mxGeometry x="541" y="381" width="80" height="80" as="geometry" />
        </mxCell>
        <mxCell id="vtsXS6kqBglkecylpVnj-12" value="LED matrix 32x8" style="rounded=1;whiteSpace=wrap;html=1;fillColor=#dae8fc;strokeColor=#6c8ebf;" parent="1" vertex="1">
          <mxGeometry x="521" y="261" width="120" height="60" as="geometry" />
        </mxCell>
        <mxCell id="vtsXS6kqBglkecylpVnj-22" value="" style="edgeStyle=orthogonalEdgeStyle;rounded=0;orthogonalLoop=1;jettySize=auto;html=1;" parent="1" source="vtsXS6kqBglkecylpVnj-13" target="vtsXS6kqBglkecylpVnj-14" edge="1">
          <mxGeometry relative="1" as="geometry" />
        </mxCell>
        <mxCell id="vtsXS6kqBglkecylpVnj-13" value="PWM modulator" style="rounded=1;whiteSpace=wrap;html=1;fillColor=#fff2cc;strokeColor=#d6b656;" parent="1" vertex="1">
          <mxGeometry x="301" y="581" width="80" height="80" as="geometry" />
        </mxCell>
        <mxCell id="vtsXS6kqBglkecylpVnj-14" value="Servo Motor" style="rounded=1;whiteSpace=wrap;html=1;fillColor=#fff2cc;strokeColor=#d6b656;" parent="1" vertex="1">
          <mxGeometry x="281" y="721" width="120" height="60" as="geometry" />
        </mxCell>
        <mxCell id="vtsXS6kqBglkecylpVnj-23" value="" style="edgeStyle=orthogonalEdgeStyle;rounded=0;orthogonalLoop=1;jettySize=auto;html=1;" parent="1" source="vtsXS6kqBglkecylpVnj-15" target="vtsXS6kqBglkecylpVnj-16" edge="1">
          <mxGeometry relative="1" as="geometry" />
        </mxCell>
        <mxCell id="vtsXS6kqBglkecylpVnj-15" value="BUZZER driver" style="rounded=1;whiteSpace=wrap;html=1;fillColor=#f8cecc;strokeColor=#b85450;" parent="1" vertex="1">
          <mxGeometry x="541" y="576" width="80" height="85" as="geometry" />
        </mxCell>
        <mxCell id="vtsXS6kqBglkecylpVnj-16" value="BUZZER" style="rounded=1;whiteSpace=wrap;html=1;fillColor=#f8cecc;strokeColor=#b85450;" parent="1" vertex="1">
          <mxGeometry x="521" y="721" width="120" height="60" as="geometry" />
        </mxCell>
        <mxCell id="vtsXS6kqBglkecylpVnj-28" value="" style="shape=flexArrow;endArrow=classic;startArrow=classic;html=1;rounded=0;" parent="1" edge="1">
          <mxGeometry width="100" height="100" relative="1" as="geometry">
            <mxPoint x="621" y="520.5" as="sourcePoint" />
            <mxPoint x="721" y="520.5" as="targetPoint" />
          </mxGeometry>
        </mxCell>
        <mxCell id="vtsXS6kqBglkecylpVnj-30" value="" style="shape=flexArrow;endArrow=classic;startArrow=classic;html=1;rounded=0;" parent="1" edge="1">
          <mxGeometry width="100" height="100" relative="1" as="geometry">
            <mxPoint x="921" y="520.5" as="sourcePoint" />
            <mxPoint x="1021" y="520.5" as="targetPoint" />
          </mxGeometry>
        </mxCell>
        <mxCell id="vtsXS6kqBglkecylpVnj-31" value="&lt;font style=&quot;font-size: 24px;&quot;&gt;&lt;b&gt;Project&amp;nbsp;&lt;/b&gt;&lt;/font&gt;" style="text;html=1;align=center;verticalAlign=middle;whiteSpace=wrap;rounded=0;" parent="1" vertex="1">
          <mxGeometry x="301" y="131" width="320" height="60" as="geometry" />
        </mxCell>
      </root>
    </mxGraphModel>
  </diagram>
</mxfile>
